<svg xmlns="http://www.w3.org/2000/svg" viewBox="0 0 1200 600" preserveAspectRatio="xMidYMid slice">
  <defs>
    <linearGradient id="bg" x1="0" y1="0" x2="1" y2="1">
      <stop offset="0%" stop-color="#064e3b"/>
      <stop offset="50%" stop-color="#065f46"/>
      <stop offset="100%" stop-color="#047857"/>
    </linearGradient>
    <radialGradient id="glow" cx="80%" cy="20%" r="50%">
      <stop offset="0%" stop-color="#34d399" stop-opacity="0.25"/>
      <stop offset="100%" stop-color="#064e3b" stop-opacity="0"/>
    </radialGradient>
  </defs>
  <rect width="1200" height="600" fill="url(#bg)"/>
  <rect width="1200" height="600" fill="url(#glow)"/>
  <polyline points="0,-35.0 50,-27.717689118393615 100,-26.765743234170042 150,-30.76838710895396 200,-37.13195528940988 250,-43.21035539019366 300,-47.3465867574945 350,-49.38951075855461 400,-50.50926628993874 450,-52.422479735497504 500,-56.3770739076035 550,-62.34315149189986 600,-68.77357709905307 650,-73.06767746534612 700,-72.58349124471316 750,-65.81090041035787 800,-53.232292171866284 850,-37.49578159820764 900,-22.774655829555208 950,-13.493508927369671 1000,-12.850673109953929 1050,-21.662165660204817 1100,-37.95512973362766 1150,-57.48125519756979 1200,-74.99584646511656" fill="none" stroke="#34d399" stroke-width="1.5" opacity="0.15"/><polyline points="0,-3.934494105399647 50,-0.7507885810267716 100,-4.098135343415286 150,-11.599978021640624 200,-20.144461669590825 250,-27.10810331840685 300,-31.243802417534056 350,-32.91522954035467 400,-33.62954948014465 450,-35.10157424922879 500,-38.26579756421615 550,-42.667951783971176 600,-46.509780880459935 650,-47.351828918593085 700,-43.20461707676925 750,-33.566765629309266 800,-19.968643814674337 850,-5.75541789908625 900,4.87036043722172 950,8.237237837857059 1000,2.533755504902013 1050,-11.414535673532832 1100,-30.229478292160326 1150,-48.9331846287888 1200,-62.46462343335574" fill="none" stroke="#10b981" stroke-width="2.5" opacity="0.18"/><polyline points="0,24.313936496133245 50,22.532905988178445 100,14.81727626297101 150,4.395063824692031 200,-5.366038941784467 250,-12.133907661801112 300,-15.261278329303185 350,-15.703378471444458 400,-15.291006944326048 450,-15.696480774542916 500,-17.541897163097197 550,-20.031253811915953 600,-21.268216791380798 650,-19.13651807207377 700,-12.382160077282768 750,-1.4400030363802774 800,11.368090711837159 850,22.400506566973377 900,27.86720484782675 950,25.197436298755157 1000,14.09790503774975 1050,-3.1134398665896086 1100,-22.062324008513563 1150,-37.60698007919987 1200,-45.43607012941952" fill="none" stroke="#10b981" stroke-width="3.5" opacity="0.21"/><polyline points="0,48.62512667324063 50,41.66040831543589 100,30.162717912997685 150,17.94080635176741 200,8.284919715365135 250,2.9505170736390607 300,1.8188687581827891 350,3.3073632750646844 400,5.311868431874146 450,6.265998542127987 500,5.87167528318939 550,5.201102451190211 600,6.133435117812306 650,10.366152727131713 700,18.42250837097493 750,29.090334657311836 800,39.566555886276454 850,46.306461783660374 900,46.29267340003085 950,38.25622109613721 1000,23.37433898989011 1050,5.143850082314666 1100,-11.576482202712125 1150,-22.054929668218726 1200,-23.2037063828787" fill="none" stroke="#34d399" stroke-width="1.5" opacity="0.24"/><polyline points="0,68.42470639318773 50,56.783770685288424 100,42.70934916467862 150,30.220197380775538 200,22.159795308196408 250,19.44271230374805 300,21.07379386770651 350,24.870466235547394 400,28.555858244864687 450,30.763610164480937 500,31.549840044587818 550,32.21949681880471 600,34.55883440387347 650,39.81110059867164 700,47.84242045697653 750,56.8755304114487 800,63.94625393432798 850,65.94700564020867 900,60.87600772599163 950,48.80720561698126 1000,32.17771948524105 1050,15.23018302229477 1100,2.7585638811628694 1150,-1.4282258310399154 1200,4.20869777034876" fill="none" stroke="#10b981" stroke-width="2.5" opacity="0.27"/><polyline points="0,83.79349369565759 50,68.68300603198132 100,53.72047600470945 150,42.701862447055596 200,37.663419472337196 250,38.476245382125654 300,43.243029217000185 350,49.287445775920226 400,54.31557959673086 450,57.28467949819994 500,58.65053623178306 550,59.92508589107455 600,62.75771103969958 650,67.94696492749031 700,74.81876302824786 750,81.26087007843438 800,84.43835175912159 850,81.93372204588239 900,72.86903369416865 950,58.55006967494724 1000,42.3356512175369 1050,28.71936098185993 1100,21.91069318350314 1150,24.404139145525566 1200,36.04972118744843" fill="none" stroke="#10b981" stroke-width="3.5" opacity="0.15"/><polyline points="0,95.47854809338247 50,78.6702444725588 100,64.7725739592647 150,56.914140713035465 200,56.02137980276716 250,60.81816136249636 300,68.58438129888783 350,76.33948743503896 400,81.97693667328113 450,84.91937617752852 500,86.07101116550166 550,87.13066939993651 600,89.58432251350162 650,93.82045559996408 700,98.75798019900981 750,102.16590373611257 800,101.56913648881223 850,95.38730918252608 900,83.84129930280355 950,69.23185296661207 1000,55.42299729445403 1050,46.665103122862725 1100,46.15397938520818 1150,54.84235464040282 1200,70.94971680262182" fill="none" stroke="#34d399" stroke-width="1.5" opacity="0.18"/><polyline points="0,104.80201218489975 50,88.40781692410842 100,77.52054898778178 150,74.20150674721927 200,78.06866534225486 250,86.72120100877487 300,96.80781313087867 350,105.30745284808575 400,110.53590582520945 450,112.52086909876468 500,112.64849243131562 550,112.7737074661447 600,114.19326579745324 650,116.92547841920481 700,119.60832312523337 750,120.07069341056433 800,116.35118025080241 850,107.74534124388322 900,95.43320059334921 950,82.38793766538018 1000,72.539571145961 1050,69.46058724750712 1100,75.04110138702508 1150,88.65002093124808 1200,107.12060956069173" fill="none" stroke="#10b981" stroke-width="2.5" opacity="0.21"/><polyline points="0,113.47974068119181 50,99.66673177801366 100,93.4430321725317 150,95.50203811188672 200,104.09461594416555 250,115.85650004267099 300,127.1000205285861 350,135.07840657556955 400,138.76689443668027 450,138.90936399594818 500,137.37118734815223 550,136.10557264543968 600,136.1803966276139 650,137.27361717991386 700,137.84529424057123 750,135.91258138809465 800,130.1016966805722 850,120.52742097577534 900,109.10598912222696 950,99.12211245609916 1000,94.16395023989044 1050,96.79843054317962 1100,107.48228678177915 1150,124.14079119516316 1200,142.6159918666077" fill="none" stroke="#10b981" stroke-width="3.5" opacity="0.24"/><polyline points="0,123.37590678737278 50,114.06180693817852 100,113.6073338763976 150,121.18197907287524 200,133.77072914703558 250,147.3398423680779 300,158.2377173500853 350,164.32247171441753 400,165.4332139387686 450,163.08475794123652 500,159.5638480347365 550,156.82523746370626 600,155.64594266644482 650,155.37568621047217 700,154.3703140134939 750,150.9122283037329 800,144.21871227601463 850,135.09550470940766 900,125.92732626992743 950,119.95843414246173 1000,120.10403917139013 1050,127.73545762928802 1100,141.91758156352546 1150,159.4287240991854 1200,175.61243646239558" fill="none" stroke="#34d399" stroke-width="1.5" opacity="0.27"/><polyline points="0,136.23005016829512 50,132.80395778801534 100,138.49130908628928 150,150.95506762059824 200,166.17509057076117 250,179.8496152411594 300,188.77309487253154 350,191.7119901692833 400,189.50492123334095 450,184.4119798772887 500,179.01629853756515 550,175.13490693209764 600,173.16990821110403 650,172.1387503230994 700,170.3409544106543 750,166.35870614132855 800,159.95180780080025 850,152.44721813404465 900,146.42478874328177 950,144.7859409027014 1000,149.54985391018752 1050,160.85057986881375 1100,176.55522894681397 1150,192.7042407257599 1200,204.66993451603298" fill="none" stroke="#10b981" stroke-width="2.5" opacity="0.15"/><polyline points="0,153.3977516041291 50,156.50810333796886 100,167.89111769063285 150,183.90140350918927 200,199.91202131300318 250,211.81977717287683 300,217.2628605358819 350,216.1475650133733 400,210.3476177685145 450,202.7473042932748 500,196.03267433473044 550,191.70808872636402 600,189.70443703950392 650,188.6968654604575 700,186.96199368100338 750,183.389557538032 800,178.20438756608317 850,173.07404883000163 900,170.52848246248266 950,172.90249370113645 1000,181.21818775185636 1050,194.4700587719636 1100,209.63922852863726 1150,222.49406489389773 1200,228.93279269569504" fill="none" stroke="#10b981" stroke-width="3.5" opacity="0.18"/><polyline points="0,175.64450853409178 50,185.08709985655608 100,200.93094273442946 150,218.58523012754745 200,233.31036645601213 250,241.67877433110712 300,242.50465464055318 350,236.95382978957983 400,227.85005923718964 450,218.48336893068367 500,211.39216602606973 550,207.5751425914898 600,206.40156217168726 650,206.20458967407677 700,205.27261979557522 750,202.8020123511518 800,199.39873406606807 850,196.9054017933722 900,197.60951067451956 950,203.1484729072819 1000,213.56481984231817 1050,226.92450853452797 1100,239.7052025599235 1150,247.86640840015343 1200,248.24163457846865" fill="none" stroke="#34d399" stroke-width="1.5" opacity="0.21"/><polyline points="0,203.02464904399406 50,217.7492500622606 100,236.17513896105598 150,253.2554870748702 200,264.67108970905076 250,268.097429632123 300,263.74275602807916 350,254.0120541400955 400,242.46797691734668 450,232.50379484364447 500,226.22668241355245 550,223.94510340932408 600,224.40549580537981 650,225.62831622706287 700,225.96539621009578 750,224.92598719720047 800,223.42446663522932 850,223.34541637080227 900,226.605772482062 950,234.10718175245245 1000,245.02990403248452 1050,256.7977097431101 1100,265.78608237068465 1150,268.55145563397554 1200,263.14088672999753" fill="none" stroke="#10b981" stroke-width="2.5" opacity="0.24"/><polyline points="0,234.86442173308149 50,253.1012325848137 100,271.827439404113 150,286.09980398348307 200,292.5265354622819 250,290.2066883565531 300,280.8091818704797 350,267.80632952494074 400,255.1748466513672 450,246.05308968249324 500,241.83468652639363 550,241.99329323459278 600,244.64455953948794 650,247.57072985880285 700,249.26708709352457 750,249.57901996496898 800,249.67719005257112 850,251.39443885799562 900,256.21286294611855 950,264.33876973256963 1000,274.27765449851427 1050,283.1292692152276 1100,287.537420015563 1150,284.9605039611823 1200,274.78214650793916" fill="none" stroke="#10b981" stroke-width="3.5" opacity="0.27"/><polyline points="0,269.8526755535652 50,289.3421721416504 100,305.9882217356648 150,315.5138418440835 200,315.8712284898089 250,307.75013755965125 300,294.17595875380397 350,279.37359211453395 400,267.3253485459231 450,260.54153325696115 500,259.46126221013884 550,262.6501749290788 600,267.6580542172198 650,272.15815268223594 700,274.90103556099314 750,276.109626978821 800,277.17933563683374 850,279.83352541144046 900,285.1078618635945 950,292.60982826687484 1000,300.39307479139114 1050,305.5410000620284 1100,305.2649858197612 1150,298.1028334246218 1200,284.7396416305825" fill="none" stroke="#34d399" stroke-width="1.5" opacity="0.15"/><polyline points="0,306.22621487285403 50,324.52052499948036 100,336.9315691791489 150,340.3449587491862 200,334.3278544668266 250,321.14585179100857 300,304.9080124045031 350,290.1630104170505 400,280.45154213348167 450,277.3157276415133 500,280.08046799714026 550,286.42706853877434 600,293.48777612668226 650,299.010128849119 700,302.13719719782546 750,303.5209379248588 800,304.7618459539985 850,307.44046311371966 900,312.169085233692 950,318.08220729424323 1000,323.00593618821335 1050,324.269324392624 1100,319.85268724413464 1150,309.41505555724433 1200,294.76716011851784" fill="none" stroke="#10b981" stroke-width="2.5" opacity="0.18"/><polyline points="0,342.0224999191599 50,356.8156736763891 100,363.36042507636967 150,360.07259028467917 200,348.22157007001806 250,331.4458926839329 300,314.52166507180425 350,301.8248740518701 400,296.0230387760003 450,297.431644136317 500,304.2162223428632 550,313.3086920967107 600,321.653391663087 650,327.29698531510144 700,329.92136196478435 750,330.65323309000075 800,331.27557619166373 850,333.2010981855155 900,336.65613258728854 950,340.43177087478597 1000,342.32426125954186 1050,340.1010220321199 1100,332.60431567946387 1150,320.53089349306487 1200,306.5343377757814" fill="none" stroke="#10b981" stroke-width="3.5" opacity="0.21"/><polyline points="0,375.36208973536833 50,384.8021414341451 100,384.60110582707694 150,374.897009075431 200,358.54959400844496 250,340.1975783095633 300,324.7687023200829 350,315.9607341330491 400,315.2088516126335 450,321.4672801946562 500,331.8322613732322 550,342.73188027558666 600,351.2171685164772 650,355.876504876054 700,357.0619158294749 750,356.3943174249867 800,355.79663966756794 850,356.48096653738713 900,358.32154042756827 950,359.87955505396525 1000,359.07425659790385 1050,354.22487428642444 1100,345.02577661304036 1150,333.02804468567314 1200,321.38276099893534" fill="none" stroke="#34d399" stroke-width="1.5" opacity="0.24"/><polyline points="0,404.71868357337456 50,407.656787162587 100,400.7073797184523 150,385.7218630800465 200,366.84901062449416 250,349.22598022372813 300,337.37800465922516 350,333.87328815850987 400,338.67906934830233 450,349.40634634424345 500,362.3109834389553 550,373.6559572644966 600,380.9288355451352 650,383.4876259033791 700,382.44284099297755 750,379.8820811673722 800,377.7911411568843 850,377.1291011051188 900,377.4368821888011 950,377.1321968238278 1000,374.35860994431897 1050,368.02478138499544 1100,358.58324989306595 1150,348.1916630186358 1200,340.13863103330493" fill="none" stroke="#10b981" stroke-width="2.5" opacity="0.27"/><polyline points="0,429.13651046534005 50,425.2778642120054 100,412.45788364057364 150,394.03198485691416 200,374.98140213146974 250,360.3695945565054 300,353.79390894103835 350,356.35525280816637 400,366.47889479443364 450,380.61358491431616 500,394.52692163065643 550,404.71530953294484 600,409.4279858703144 650,408.9693936582021 700,405.22710504523917 750,400.6648580527484 800,397.2116044943497 850,395.4973019755848 900,394.73035259350706 950,393.24324322091763 1000,389.4579398500219 1050,382.8487308986288 1100,374.47582664820453 1150,366.83067881223246 1200,363.00937992734407" fill="none" stroke="#10b981" stroke-width="3.5" opacity="0.15"/><polyline points="0,448.36285224795824 50,438.2981198027453 100,421.2467580068725 150,401.6839340243748 200,384.8658723318408 250,375.20879201255644 300,374.9515958928334 350,383.5510447114564 400,397.99673636002103 450,413.90805163014414 500,427.00539137485913 550,434.43111814119413 600,435.47162041804694 650,431.46882178282743 700,425.01589917144855 750,418.7920978951185 800,414.508786465547 850,412.37223468519454 900,411.2474359307054 950,409.4196601091797 1000,405.608929561985 1050,399.79121247211276 1100,393.45815095925474 1150,389.17423911246783 1200,389.57814351332405" fill="none" stroke="#34d399" stroke-width="1.5" opacity="0.18"/><polyline points="0,462.876418701672 50,447.99013168190476 100,428.88355453875283 150,410.6401116172787 200,398.2002062262322 250,394.82824741619726 300,401.12465996632625 350,414.9142828917278 400,432.03360295206585 450,447.7252033903823 500,458.1429668304071 550,461.44916824111704 600,458.149767507965 650,450.6026522431446 700,441.93616540096275 750,434.81930856476055 800,430.5566260795084 850,428.83218097671374 900,428.15883219363997 950,426.8065147164161 1000,423.7959312803244 1050,419.523856682912 1100,415.73999964495374 1150,414.8624605838441 1200,418.894532354329" fill="none" stroke="#10b981" stroke-width="2.5" opacity="0.21"/><polyline points="0,473.8081243543865 50,456.0783597919309 100,437.3322194719902 150,422.6859919712504 200,416.2120315768832 250,419.64978980484244 300,431.86935436135593 350,449.2695818222614 400,466.96527265383196 450,480.3443779013756 500,486.45608035151685 550,484.76580350911036 600,477.05340597470274 650,466.54505532260475 700,456.64040003229024 750,449.725348302291 800,446.50252521978996 850,446.0527597832716 900,446.54837847538715 950,446.2860379200056 1000,444.5901166015475 1050,442.20072961394766 1100,440.976981970478 1150,443.0305493286644 1200,449.6451405631108" fill="none" stroke="#10b981" stroke-width="3.5" opacity="0.24"/><polyline points="0,482.7671001874093 50,464.4864278501275 100,448.4281571537246 150,439.1726985406903 200,439.4775530638702 250,449.36169644671094 300,466.0754356948716 350,484.9710650261057 400,500.97405536608136 450,510.1474954533363 500,510.8189027288482 550,503.9052666219277 600,492.36601350467583 650,480.0249947887071 700,470.21699159389175 750,464.75467992404396 800,463.567647087599 850,465.09443842803176 900,467.21688240510196 950,468.3245904735879 1000,468.0620538724977 1050,467.45222294549353 1100,468.3516999227409 1150,472.47056814294274 1200,480.37504498060576" fill="none" stroke="#34d399" stroke-width="1.5" opacity="0.27"/><polyline points="0,491.59900199529113 50,475.0577884382909 100,463.6156202459169 150,460.82338006554954 200,467.8353559079385 250,482.95596069853457 300,502.1172973172963 350,520.1349900547388 400,532.3157625521051 450,535.8692965661561 500,530.6526214327314 550,519.0187406540299 600,504.8618773110456 650,492.23145329219574 700,484.024056241294 750,481.2097778580602 800,482.8304181192233 850,486.7077828540897 900,490.5350758788418 950,492.892921992355 1000,493.78126867001794 1050,494.46687720729324 1100,496.7301626881169 1150,501.8430575206625 1200,509.7240616667879" fill="none" stroke="#10b981" stroke-width="2.5" opacity="0.15"/><polyline points="0,502.11366958129844 50,489.29169617054384 100,483.7444607087261 150,487.63219728625876 200,500.40846105468916 250,518.8687170560524 300,538.0836878696698 350,552.9121902015609 400,559.5815222918683 450,556.8000749093864 500,546.0352036373877 550,530.8873173618268 600,515.8089972124282 650,504.63966634710533 700,499.47249802085264 750,500.2274556602397 800,505.0295310066202 850,511.18963447856714 900,516.3707460550039 950,519.4728580975179 1000,520.9019008486225 1050,522.1461235731842 1100,524.8663164646579 1150,529.9032318925986 1200,536.6398743605432" fill="none" stroke="#10b981" stroke-width="3.5" opacity="0.18"/><polyline points="0,515.8234319423009 50,508.133759908741 100,508.9561177769375 150,518.8706927971107 200,535.7314561634979 250,555.2033253064251 300,572.0521530588345 350,581.7595499786474 400,581.914315540298 450,572.9086325648077 500,557.7126729155254 550,540.8260264794833 600,526.7896643665507 650,518.784552774517 700,517.79276939166 750,522.5760384738833 800,530.4199386633018 850,538.3151824157138 900,544.1028288514783 950,547.1491751357011 1000,548.3193541857231 1050,549.3051350760618 1100,551.620121224262 1150,555.7047243436893 1200,560.5345308452661" fill="none" stroke="#34d399" stroke-width="1.5" opacity="0.21"/><polyline points="0,533.7312269594669 50,531.8517069251947 100,538.6750420066268 150,553.2000517280262 200,571.9636428169488 250,590.0030210967449 300,602.3673112056879 350,605.6694826299564 400,599.1465737370049 450,584.8650712987511 500,567.0080123943166 550,550.5016349080281 600,539.4651871859426 650,536.0165458338212 700,539.8230923197069 750,548.5074881985258 800,558.7070205369715 850,567.3585368703914 900,572.7208455287157 950,574.771258275593 1000,574.8711430168656 1050,574.8856286781605 1100,576.152837564871 1150,578.7480680170562 1200,581.3604611077867" fill="none" stroke="#10b981" stroke-width="2.5" opacity="0.24"/><polyline points="0,556.1995854418212 50,560.0137350303099 100,571.7056807255285 150,588.8717751182301 200,607.1561752647046 250,621.5324802112998 300,627.8812833859558 350,624.3224438914323 400,611.8369092903994 450,593.9582257040787 500,575.6396929703423 550,561.6907111900534 600,555.320610681209 650,557.2785382038102 700,565.8541399646231 750,577.6902012559033 800,589.0716001448561 850,597.1998883123089 900,600.9938598603683 950,601.157487477688 1000,599.5478634310937 1050,598.1447217989925 1100,598.0673254850966 1150,599.0505552515922 1200,599.5955169755017" fill="none" stroke="#10b981" stroke-width="3.5" opacity="0.27"/>
</svg>